PathFileType	4	(X/Y/Z)	G:\Shared drives\HPL_Drive\Nord Sprinting Study\Kristen_Nord_test\Trimmed_Nord000004.trc
DataRate	CameraRate	NumFrames	NumMarkers	Units	OrigDataRate	OrigDataStartFrame	OrigNumFrames
200.00	200.00	      4	52	mm	200.00	376	      1002
Frame#	Time	C7			R_Shoulder			L_Shoulder			Sternum			R_humerus			R_elbow_med			R_elbow_lat			R_forearm			R_wrist_radius			R_wrist_ulna			L_humerus			L_elbow_med			L_elbow_lat			L_forearm			L_wrist_radius			L_wrist_ulna			r.ASIS			r.PSIS			r_IC			L.ASIS			L.PSIS			l_IC			r_thigh1			r_thigh2			r_thigh3			r_thigh4			r_thigh5			r_knee			r_mknee			r_shank_antsup			r_sh2			r_sh3			r_sh4			r_ankle			r_mankle			r_calc			r_5meta			r_toe			L_thigh1			L_thigh2			L_thigh3			L_thigh4			L_knee			L_mknee			L_shank_antsup			L_sh2			L_sh3			L_ankle			L_mankle			L_calc			L_5meta			L_toe			
		X1	Y1	Z1	X2	Y2	Z2	X3	Y3	Z3	X4	Y4	Z4	X5	Y5	Z5	X6	Y6	Z6	X7	Y7	Z7	X8	Y8	Z8	X9	Y9	Z9	X10	Y10	Z10	X11	Y11	Z11	X12	Y12	Z12	X13	Y13	Z13	X14	Y14	Z14	X15	Y15	Z15	X16	Y16	Z16	X17	Y17	Z17	X18	Y18	Z18	X19	Y19	Z19	X20	Y20	Z20	X21	Y21	Z21	X22	Y22	Z22	X23	Y23	Z23	X24	Y24	Z24	X25	Y25	Z25	X26	Y26	Z26	X27	Y27	Z27	X28	Y28	Z28	X29	Y29	Z29	X30	Y30	Z30	X31	Y31	Z31	X32	Y32	Z32	X33	Y33	Z33	X34	Y34	Z34	X35	Y35	Z35	X36	Y36	Z36	X37	Y37	Z37	X38	Y38	Z38	X39	Y39	Z39	X40	Y40	Z40	X41	Y41	Z41	X42	Y42	Z42	X43	Y43	Z43	X44	Y44	Z44	X45	Y45	Z45	X46	Y46	Z46	X47	Y47	Z47	X48	Y48	Z48	X49	Y49	Z49	X50	Y50	Z50	X51	Y51	Z51	X52	Y52	Z52	

376	1.875	1217.03015	471.78214	1266.36792	1334.74426	510.90048	1269.42163	1083.46912	518.99719	1275.80005	1215.92920	601.41589	1219.47205	1506.65527	461.05298	1255.05420	1645.91248	472.72775	1183.12219	1630.11072	407.20361	1224.50867	1619.81726	465.69009	1339.88782	1588.33630	550.12378	1419.77380	1627.48157	526.55438	1434.38635	883.83356	479.33597	1235.67212	774.03162	517.42517	1151.54138	771.20947	449.38562	1188.11731	798.54279	513.98572	1319.78772	838.78271	573.81610	1389.93518	782.46680	572.94202	1396.02246	1334.07996	518.96350	749.16632	1279.62256	366.58353	861.25165	1367.44653	473.99396	850.94910	1095.78662	520.71356	747.08875	1163.62634	370.25134	855.19824	1069.73206	486.29819	838.18286	1388.97351	434.18604	511.01563	1383.66711	407.62109	399.40790	1394.04138	354.17529	382.20770	1396.00793	329.61972	538.85223	1372.00098	304.94388	423.67908	1377.25598	343.73880	304.08685	1250.36023	328.70645	319.54276	1389.09082	212.38319	307.60596	1366.27893	94.53944	317.87955	1386.56396	217.36549	383.79483	1366.56641	104.64002	400.50366	1342.20398	-69.49918	377.14767	1265.00598	-54.35973	344.74539	1285.66345	-83.63211	435.65244	1347.15283	-160.74590	286.76114	1311.89319	-138.62727	232.51674	1035.55347	443.41385	508.87689	1040.41321	409.09232	372.91360	1027.98450	329.00562	542.64276	1045.73218	299.21570	408.46365	1028.99854	321.62689	328.00101	1155.89746	321.09659	303.88867	1014.90619	210.14412	316.95837	1034.51038	222.31682	405.06470	1049.59204	101.95132	408.10529	1054.40173	-76.81253	385.95807	1121.82544	-57.14674	326.38498	1111.31946	-78.26894	426.88022	1040.81335	-174.05984	283.70395	1076.26270	-154.23413	222.36995	
377	1.880	1216.98840	473.18436	1266.11780	1334.71094	512.26886	1269.21167	1083.43469	520.47168	1275.51013	1216.01477	602.87122	1219.00415	1506.55127	462.15109	1254.76782	1645.84802	473.47000	1182.74097	1630.02100	408.05310	1224.21057	1619.79688	466.72052	1339.53003	1588.56982	551.34351	1419.38647	1627.61719	527.53625	1434.06250	883.83630	480.90024	1235.32263	773.71533	518.65247	1151.47827	771.22192	450.89490	1187.79041	798.42200	515.71490	1319.33142	838.89490	575.63361	1389.28174	782.38080	574.92804	1395.42151	1334.07507	519.62854	748.96411	1279.64148	367.40262	861.17407	1367.42249	474.78876	850.72870	1096.03687	521.04932	746.38086	1163.69861	371.15060	854.87439	1069.83264	487.12003	837.98065	1388.97046	434.57715	510.92450	1383.53894	408.69269	399.41217	1394.23730	354.11978	382.48715	1396.03406	329.98862	538.82739	1371.98315	305.16946	423.73160	1377.28333	343.76663	304.03253	1250.37488	328.84515	319.55606	1389.17249	212.48343	307.67694	1366.36169	94.60090	317.96301	1386.54980	217.47049	383.85034	1366.59131	104.72311	400.60007	1342.33728	-69.42339	377.15454	1265.17542	-54.35659	344.67322	1285.64075	-83.66605	435.57117	1347.64209	-160.53038	286.75937	1312.56274	-138.39388	232.45624	1035.50146	443.75958	508.72293	1040.39844	409.27301	372.79193	1028.05249	329.37552	542.60522	1045.73254	299.42542	408.48016	1029.00830	321.74255	327.97144	1155.91431	321.15182	303.91974	1014.89093	210.26120	317.00943	1034.64551	222.39531	405.13251	1049.75061	102.09774	408.17621	1054.54456	-76.66735	386.05075	1121.90308	-57.03116	326.37518	1111.47485	-78.15804	426.83499	1040.82031	-173.96021	283.80557	1076.22705	-154.12250	222.38812	
378	1.885	1216.94409	474.74866	1265.84387	1334.66333	513.63806	1268.90833	1083.39417	522.16882	1275.23401	1216.00427	604.22772	1218.65845	1506.44824	463.25101	1254.45300	1645.71948	474.20093	1182.36194	1629.82446	408.87375	1223.98096	1619.00134	467.81653	1339.12390	1588.78613	552.54968	1418.96509	1627.76990	528.38641	1433.83472	883.83881	482.42719	1234.97266	773.77875	520.09204	1150.96753	771.26489	452.33170	1187.37927	798.36066	517.51569	1318.89722	838.53992	577.65692	1388.82544	782.26196	576.87219	1394.83154	1334.04895	520.32813	748.81140	1279.67639	368.24268	861.15137	1367.40869	475.59528	850.59741	1096.03357	521.63708	746.18262	1163.63513	371.89154	855.02551	1069.86707	487.90179	837.75305	1389.48450	434.49582	511.07965	1383.50732	408.93427	399.31311	1394.07910	354.58432	382.22037	1396.02698	330.38608	538.86115	1372.04761	305.43253	423.78149	1377.29187	343.81149	304.04575	1250.39087	329.01160	319.59076	1389.23486	212.48978	307.73370	1366.49121	94.67069	318.04004	1386.98438	217.19391	384.47827	1366.68921	104.79900	400.67682	1342.47485	-69.36696	377.24026	1265.37891	-54.31557	344.60129	1285.66736	-83.72521	435.49664	1348.27258	-160.28659	286.80392	1313.20532	-138.33517	232.40508	1035.41785	444.07709	508.56891	1040.42371	409.41595	372.69455	1027.18140	331.62167	542.70502	1045.74231	299.65396	408.48233	1029.00513	321.84546	327.99530	1155.88745	321.17612	303.90588	1014.93555	210.38998	317.22668	1034.75403	222.01381	405.22678	1050.70532	102.17369	407.75659	1054.65710	-76.53633	386.09250	1121.95801	-56.89159	326.32391	1111.60632	-77.98637	426.86914	1040.81946	-173.82742	283.87817	1076.18701	-154.03119	222.47243	
379	1.890	1216.90112	476.17209	1265.63025	1334.62891	515.02563	1268.61804	1083.55371	523.31659	1274.80127	1216.11560	605.68066	1218.14075	1506.40186	464.11075	1254.13770	1645.67139	474.98929	1181.99829	1629.63696	409.71643	1223.69519	1619.00256	468.81339	1338.77466	1588.97974	553.75177	1418.61609	1627.55505	529.50696	1432.72107	883.82501	483.92868	1234.65955	773.83514	521.44366	1150.50452	771.24475	453.78003	1187.08508	798.31287	519.25769	1318.43066	838.49695	579.58282	1388.17261	782.18323	578.73859	1394.23291	1334.13330	520.96930	748.47003	1279.68030	369.05145	861.08856	1367.46948	476.42413	850.35706	1095.81104	522.60773	746.22449	1163.68811	372.67142	854.96918	1069.86902	488.73654	837.50433	1389.48328	434.84381	510.97592	1383.54065	409.17563	399.21732	1394.25415	354.58713	382.44083	1396.05603	330.83664	538.85754	1372.06250	305.69171	423.81421	1377.31592	343.90222	304.06900	1250.39624	329.18045	319.65686	1389.31921	212.60298	307.83026	1366.15454	95.09101	318.14691	1387.05945	217.30063	384.51703	1366.79712	104.84845	400.74887	1342.70837	-69.26575	377.24155	1265.60449	-54.33236	344.74686	1285.73267	-83.77186	435.48813	1348.86426	-160.08342	286.82419	1314.25330	-137.95442	232.35725	1035.36511	444.41934	508.39172	1040.34033	409.57022	372.60275	1028.06433	330.17566	542.63354	1045.05420	299.85651	408.61136	1028.99780	321.95627	327.99530	1155.86475	321.20990	303.89804	1014.88770	210.44148	317.32623	1037.15930	222.43571	407.57632	1050.87207	102.29042	407.81329	1054.80139	-76.38308	386.14990	1122.02661	-56.78268	326.26605	1111.77820	-77.87279	426.83536	1040.85681	-173.73854	283.95151	1076.13281	-153.95630	222.53143	
